<svg width="192" height="192" viewBox="0 0 192 192" fill="none" xmlns="http://www.w3.org/2000/svg">
  <rect width="192" height="192" rx="40" fill="#4f46e5"/>
  <g transform="translate(32, 32)">
    <path fill="white" d="M64 16C64 20.4183 60.4183 24 56 24H24C19.5817 24 16 20.4183 16 16V16C16 11.5817 19.5817 8 24 8H56C60.4183 8 64 11.5817 64 16V16Z"/>
    <path fill="white" d="M64 36C64 40.4183 60.4183 44 56 44H24C19.5817 44 16 40.4183 16 36V36C16 31.5817 19.5817 28 24 28H56C60.4183 28 64 31.5817 64 36V36Z"/>
    <path fill="white" d="M64 56C64 60.4183 60.4183 64 56 64H24C19.5817 64 16 60.4183 16 56V56C16 51.5817 19.5817 48 24 48H56C60.4183 48 64 51.5817 64 56V56Z"/>
    <!-- Icono de video llamada -->
    <path fill="#fbbf24" d="M88 28L104 20V60L88 52V28Z"/>
    <rect x="64" y="20" width="24" height="40" rx="4" fill="#fbbf24"/>
  </g>
  <text x="96" y="150" font-family="Arial, sans-serif" font-size="20" font-weight="bold" fill="white" text-anchor="middle">SupportDesk</text>
</svg>
